PathFileType	4	(X/Y/Z)	OpenSim_Sub09_CSBaseline_Accel.trc
DataRate	CameraRate	NumFrames	NumMarkers	Units	OrigDataRate	OrigDataStartFrame	OrigNumFrames
100	100	38	8	m	100	731	5840
Frame#	Time	torso_imu_offset_imu	pelvis_imu_offset_imu	tibia_r_imu_offset_imu	femur_r_imu_offset_imu	tibia_l_imu_offset_imu	femur_l_imu_offset_imu	toes_r_imu_offset_imu	toes_l_imu_offset_imu
				X1	Y1	Z1	X2	Y2	Z2	X3	Y3	Z3	X4	Y4	Z4	X5	Y5	Z5	X6	Y6	Z6	X7	Y7	Z7	X8		Y8	Z8	

731	7.30000000	10.92208306	-0.09826071	7.11007437	11.20636002	0.05422400	2.70950934	11.87465096	1.87841694	2.40904637	11.31827859	-1.61376727	0.89389799	13.98762362	0.11833822	5.91572051	12.07606062	1.55728796	3.80430309	5.00169339	-1.88858118	10.03772963	4.67995574	2.52812897	10.21771108
732	7.31000000	11.24028218	0.07861846	7.34322012	11.76903732	-0.92312938	3.47785525	11.95999431	2.10157203	2.85375956	11.40130162	-1.66861519	1.16834246	14.61469936	2.39245141	6.83770523	13.24554386	1.94775317	2.75840508	5.04303188	-2.34977145	9.96154391	11.17824091	-0.07065712	14.35098838
733	7.32000000	11.64545775	0.20257046	7.67474643	12.38838591	-1.85928077	4.14279724	12.35767699	2.61737591	2.86129754	11.48616304	-1.73940204	1.40375108	15.05761190	2.61565710	6.60272061	16.22600630	2.64195426	1.56637440	5.11791115	-2.29034672	10.10034090	14.63063546	-0.40293916	15.94888648
734	7.33000000	12.01151234	0.44177085	7.96004846	12.99043791	-2.81869074	4.53745060	12.88793465	3.15330690	2.81064324	11.61413750	-1.60634449	1.76515273	15.20696116	1.18972530	6.05959497	16.59528510	2.49762625	0.52248078	5.14723453	-2.46275253	9.99082533	10.78580061	-1.26847155	13.35641881
735	7.34000000	11.74069191	0.77908189	8.19849483	13.28965398	-3.64488511	4.59266084	13.49033867	3.51850981	2.58077949	11.66675117	-1.25524174	2.14120250	13.45155024	-1.03975359	5.07636245	15.47983272	2.90755014	-0.62291258	5.37174599	-2.42982905	10.03143516	8.81351492	1.57592239	12.96893471
736	7.35000000	11.24978333	0.95043659	8.31554109	13.03933326	-3.73690243	4.44349109	13.84865258	4.22097098	2.50865086	11.84387613	-0.61820069	2.34518483	11.03767307	-2.51468505	3.80796736	14.00646098	3.12234352	-1.33828170	5.68589677	-3.00923662	9.75841597	10.02111359	4.82394196	13.33961367
737	7.36000000	10.42491944	1.16637562	8.07630156	12.33559864	-2.97586689	4.50071547	14.06630014	4.74997299	1.82056202	11.84155708	0.09528195	2.28628053	9.51152966	-2.79163306	1.71672016	12.10178098	2.12187248	-1.16508074	7.53475648	-3.83765162	10.19513621	14.54567161	4.08069770	15.01819304
738	7.37000000	10.13968137	1.31964337	7.60159281	11.58933940	-1.78118672	4.66527647	13.98628474	4.20748987	0.64070944	11.63320284	0.92650235	2.16679817	10.20945282	-2.67855245	-0.47934615	10.03042025	0.82844258	-1.34371272	8.50067111	-6.29436496	9.91791717	6.42418804	1.89363463	11.53121501
739	7.38000000	9.96284850	1.38721544	7.18581132	10.87665568	-0.81477427	4.58685773	13.74897147	2.31470404	-0.90886228	11.48318772	1.79428775	2.34964340	10.78759649	-3.15839069	-2.04825606	8.22794419	0.21997166	-2.03595407	12.84478529	-6.63436719	11.35953936	6.48407029	4.60091711	11.58574023
740	7.39000000	9.27727097	1.61878938	6.76639947	10.05174921	-0.13878448	4.47363198	13.08014534	-0.30538816	-1.64091961	11.45794797	2.53852542	2.48759886	9.09534696	-4.20693022	-2.40229005	7.72955027	-0.43011318	-2.45616345	12.85974378	-8.71723571	10.28823977	7.28422976	2.86386369	11.39305292
741	7.40000000	8.91466649	1.65686818	6.37836299	9.60168944	0.29059682	4.39073594	11.47169196	-2.10047641	-2.21340476	11.55497013	2.51870804	2.38087374	8.45458436	-5.41054077	-2.00828502	8.03493817	-0.50166009	-2.36608455	11.24997182	-6.27176669	10.66623602	6.77451058	2.97012646	11.59721748
742	7.41000000	8.84107582	1.54910015	6.13916793	9.24074405	0.64299009	4.28313856	9.86729833	-0.80666439	-2.64448799	11.64611781	2.12395380	2.83577415	9.13713850	-6.32283737	-2.55077593	8.71690445	-0.19309999	-2.23992908	12.58778023	-4.95309510	10.32878909	6.27957469	2.99423237	11.08901602
743	7.42000000	8.79668843	1.57704570	6.05704652	9.09086069	0.82812864	4.00820979	8.99445839	2.40968920	-2.16809334	11.51539397	1.86077256	3.22978125	8.50915489	-7.18323639	-3.69002017	9.33973373	0.63816224	-2.47214716	12.25817218	-5.08338533	8.98596703	5.92743211	3.20397397	11.18276818
744	7.43000000	8.76082993	1.55675619	6.09228488	9.19553270	0.62104773	3.67994259	8.33847724	5.53617191	-1.79109857	10.98933407	1.50749684	3.41044072	8.52959773	-8.08064286	-4.38196922	9.46158629	1.69600937	-2.53175855	12.13300195	-4.54826106	8.39424688	4.98749085	3.33808556	11.13778507
745	7.44000000	8.78341897	1.56636653	6.01582838	9.38170947	0.23302990	3.35001607	7.50605058	8.10503197	-2.10969442	10.51427913	0.94462909	3.50806223	9.28208198	-8.76852497	-4.49460728	9.71428316	2.25547717	-2.40700099	4.59276178	-3.31667143	4.21368883	4.77015368	3.38243818	10.87277002
746	7.45000000	8.69875154	1.55246913	5.98090204	9.52875583	-0.29191509	3.10790468	6.27795451	9.93190909	-1.59852084	10.14084338	0.31132786	3.39027329	9.63338483	-7.85690625	-3.73821833	9.96793363	2.12820178	-2.19145299	2.69668195	-2.64707613	11.37349736	5.19994636	3.43818908	10.93460494
747	7.46000000	8.52544263	1.57303650	5.97426065	9.53962760	-0.90882088	3.02134429	4.87266648	10.93501509	-1.39071158	9.96999865	-0.16574660	3.42983215	9.62344929	-5.89261450	-2.14301922	9.97661850	1.84484575	-1.84309129	19.74536375	-4.54761790	15.48305589	4.82992316	3.37178712	10.92200197
748	7.47000000	8.50760675	1.46817907	5.97547843	9.44640542	-1.57870719	2.98294310	3.10821903	11.63555204	-1.97704097	10.05823009	-0.13007803	3.49454397	10.01062532	-3.72592356	-0.89732200	9.48114694	1.58256189	-1.87790180	12.07754260	-8.42849171	11.59058422	4.55030894	3.25945532	11.09091386
749	7.48000000	8.58944758	1.33303088	5.94432590	9.28453615	-2.10035978	2.88908349	1.46452933	11.57362548	-0.28243897	10.19903134	-0.04726376	3.48354505	10.71289384	-1.53659831	-0.12980354	9.45669110	0.96940942	-1.44922684	-2.08111299	-12.91354226	6.26036917	4.99211052	3.01282738	10.90595479
750	7.49000000	8.65713911	1.25788172	6.03408731	9.23740176	-2.49114656	2.80535029	1.64248566	9.67595795	0.76409788	10.36507433	0.19014824	3.45328081	11.14832626	0.89839212	0.92057211	8.98692562	0.53322782	-1.30182880	-2.93503829	-10.96799615	5.23128346	4.90567851	3.08233276	10.76646278
751	7.50000000	8.46767462	1.15066139	6.12912458	9.08709692	-2.80570571	2.71268724	2.92711383	7.48906135	0.28851197	10.15397428	0.45713054	3.38816037	10.84772559	3.38452339	1.87312218	9.10384193	0.42707073	-1.19877376	-1.00906246	-5.85169497	5.92624415	4.65540888	3.19409408	10.49227396
752	7.51000000	8.16653860	1.09252384	6.24399806	8.96208271	-2.95693494	2.70730852	3.88350048	5.86804021	0.71322420	9.45206314	0.44727285	3.38367259	10.01868002	4.94383900	2.34473872	9.02877393	0.25163340	-1.26425950	-0.49625170	-2.66903242	6.92789766	4.43047238	3.55049861	10.68256534
753	7.52000000	7.94791407	1.16168779	6.39894837	8.77993106	-3.07415760	2.67888821	4.02142245	4.28089393	1.22821308	8.81576379	0.46605186	3.30019702	9.45915735	5.02624417	2.15005939	8.81797497	0.19709616	-1.20273813	0.09626042	-1.21451880	7.68777234	4.21245409	3.72462469	10.50493469
754	7.53000000	7.94040804	1.20919392	6.46822903	8.60948162	-2.97823225	2.75888235	3.53092815	3.13060220	0.85058353	8.44663665	0.50169490	3.21504732	9.60989486	3.57248459	1.57150572	8.92710983	0.58350980	-1.36156480	0.31071857	-1.46906802	7.74121169	4.30358503	3.62860576	10.45160373
755	7.54000000	7.87555675	1.24359131	6.35432043	8.55100136	-2.75137528	2.77972007	3.12075802	2.58600718	0.58603235	8.31293956	0.35403122	3.16802709	9.82427344	1.68057031	0.69792688	9.05069494	0.81346292	-1.33215905	0.43362311	-2.28676865	7.68089454	4.53213974	3.19173750	10.33793099
756	7.55000000	7.78522208	1.18174191	6.29719223	8.39381694	-2.57481263	2.79774865	2.96822034	2.52482271	0.72411730	8.32693931	0.07900926	3.14838233	9.68315380	-0.10010454	-0.20035415	9.04795905	1.37706468	-1.28275412	1.24675025	-2.60663728	7.94697295	4.56125065	3.51499057	10.47153723
757	7.56000000	7.69905629	1.25177362	6.41756345	8.40468563	-2.21516102	2.82589170	3.27033802	2.55682246	0.61530633	8.36450590	-0.05268261	3.17343634	9.63669124	-1.74028947	-0.90095444	9.24913908	1.74068322	-1.37748418	2.38809894	-2.64238136	8.43634012	4.30609104	3.55013206	10.60201825
758	7.57000000	7.70476709	1.33746042	6.47149480	8.36094937	-1.81887238	2.75823908	4.08032528	2.73860832	0.22320071	8.39102496	-0.08676562	3.22581206	9.76077717	-2.92167868	-1.31344820	9.04044991	1.86588996	-1.36529942	3.00261835	-2.16198553	8.89938188	4.30151458	3.40270516	10.40222946
759	7.58000000	7.76610288	1.33259977	6.42642780	8.34476804	-1.48805411	2.76319870	5.07624505	3.27588458	0.58925328	8.38784596	-0.16377156	3.16386705	9.99444768	-2.69310553	-1.34030171	8.88767610	2.18943497	-1.20886180	3.04277549	-1.70976490	9.34662141	4.47948036	3.74290499	10.03129377
760	7.59000000	7.87190605	1.35979897	6.40240228	8.56165426	-1.11386216	2.74138449	6.10194090	3.78047705	0.74569586	8.31869060	-0.23342427	3.04211867	9.92868563	-1.47996773	-0.57534030	8.99262121	2.40850662	-1.18428108	3.51717109	-1.36318207	9.75815197	4.49709565	3.50818624	10.34713271
761	7.60000000	7.95770191	1.40142758	6.41908426	8.76077839	-0.66241789	2.64909334	7.00388517	4.28446391	0.77239589	8.23536891	-0.36379425	2.87295771	9.93887005	-0.13176782	0.12850259	9.10463518	2.58552615	-1.23748949	4.11025630	-1.35733029	10.08272658	4.26858771	3.58374959	10.55353125
762	7.61000000	8.00313724	1.42643445	6.34677852	8.87533666	-0.59623272	2.54989993	7.71112957	4.55872357	0.87499889	8.16209527	-0.41822601	2.73657109	9.95844965	0.92544500	0.81269961	8.95823673	2.65665800	-1.26178665	4.57456758	-1.57176346	10.38488115	4.78067764	3.57962356	10.32881851
763	7.62000000	8.05088326	1.51558385	6.36330962	8.93092702	-0.41603202	2.42067622	8.32004599	4.68862895	0.76761812	8.08939247	-0.49522020	2.66400298	9.67732165	1.75097311	1.10585254	8.90122903	2.85825686	-1.30016671	5.07246393	-1.43067211	10.64788850	4.92597735	3.57078534	10.29631788
764	7.63000000	8.04692138	1.54802158	6.34703259	8.88940226	-0.53151191	2.37056325	8.88288994	4.67940331	0.72185405	8.06987690	-0.54806924	2.58503441	9.55750992	1.88465283	0.99960681	8.95716650	3.11469109	-1.37446218	5.24086916	-0.31851486	11.19074369	5.03853362	3.29188377	10.36780652
765	7.64000000	8.09679609	1.56230085	6.36387670	8.85265547	-0.56657906	2.40657049	9.38746681	4.59132676	0.58592995	8.07411983	-0.57784975	2.51970406	9.76317838	0.97500473	0.74021073	8.88101483	3.25678253	-1.34086694	5.49468103	1.16772242	11.59129280	5.03675396	3.31392336	10.75864624
766	7.65000000	8.16093491	1.61435365	6.40803714	8.76376913	-0.73830574	2.32923981	9.94455441	4.73970859	0.83366172	8.01775606	-0.73448270	2.52672743	9.85227936	-0.09030915	0.67915899	8.80593856	3.40995752	-1.19008815	5.90065407	2.15870724	11.81815329	4.95092860	3.22039403	10.66309917
767	7.66000000	8.15543886	1.69387448	6.43626511	8.70508197	-0.97564301	2.23239562	10.32058069	5.46602903	0.74698326	7.88517313	-0.77574719	2.57179247	9.45217568	-0.35492949	0.15860867	8.62810279	3.39054816	-1.01575340	6.77957073	1.96049239	12.06682826	5.07764576	3.36625974	10.34834146
768	7.67000000	8.08060658	1.69612213	6.46353885	8.61665496	-1.14928373	2.16763945	10.37858979	6.57527944	0.70678597	7.79789808	-1.00137228	2.64681384	9.25440757	0.03423334	0.05770359	8.27214777	3.29665789	-0.96939655	7.76796754	0.69857983	12.33197117	5.39814692	3.34708566	10.24003159
